# xmcd
#
# Track frame offsets:
#	150
#	23299
#	43376
#	71321
#	90525
#	105609
#	121755
#	140660
#	170345
#	190196
#
# Disc length: 2864 seconds
# Revision: 1
# Processed by: cddbd v1.5.2PL0 Copyright (c) Steve Scherf et al.
# Submitted via: dBpowerAMP V12.0
#
DISCID=7b0b2e0a
DTITLE=Mr. Black and Blues - Long Road Home
DYEAR=2012
DGENRE=Blues
TTITLE0=Long Road Home
TTITLE1=Dreamcatcher
TTITLE2=Killing Floor
TTITLE3=Come Back Again
TTITLE4=Heartbeat
TTITLE5=Fever
TTITLE6=Broken Heart Blues
TTITLE7=Smokestacked
TTITLE8=I'll Never Leave Alexandra
TTITLE9=Dance in the Rain
EXTD=
EXTT0=
EXTT1=
EXTT2=
EXTT3=
EXTT4=
EXTT5=
EXTT6=
EXTT7=
EXTT8=
EXTT9=
PLAYORDER=
